<mxfile host="app.diagrams.net" modified="2023-11-14T20:23:55.933Z" agent="Mozilla/5.0 (Windows NT 10.0; Win64; x64) AppleWebKit/537.36 (KHTML, like Gecko) Chrome/119.0.0.0 Safari/537.36" etag="1Ekcl3Rwj_BD8WXmKIdc" version="22.1.1" type="device">
  <diagram name="Page-1" id="1QlI8xKgBxIRoNopphL9">
    <mxGraphModel dx="1008" dy="604" grid="1" gridSize="10" guides="1" tooltips="1" connect="1" arrows="1" fold="1" page="1" pageScale="1" pageWidth="850" pageHeight="1100" math="0" shadow="0">
      <root>
        <mxCell id="0" />
        <mxCell id="1" parent="0" />
        <mxCell id="88dExMz7GgdW-D3_D78H-1" value="CLIENT" style="rounded=1;whiteSpace=wrap;html=1;" parent="1" vertex="1">
          <mxGeometry x="80" y="120" width="120" height="60" as="geometry" />
        </mxCell>
        <mxCell id="88dExMz7GgdW-D3_D78H-2" value="SERVER" style="rounded=1;whiteSpace=wrap;html=1;" parent="1" vertex="1">
          <mxGeometry x="360" y="120" width="120" height="60" as="geometry" />
        </mxCell>
        <mxCell id="88dExMz7GgdW-D3_D78H-4" value="DATABASE" style="rounded=1;whiteSpace=wrap;html=1;" parent="1" vertex="1">
          <mxGeometry x="640" y="120" width="120" height="60" as="geometry" />
        </mxCell>
        <mxCell id="88dExMz7GgdW-D3_D78H-5" value="" style="endArrow=none;dashed=1;html=1;rounded=0;" parent="1" target="88dExMz7GgdW-D3_D78H-1" edge="1">
          <mxGeometry width="50" height="50" relative="1" as="geometry">
            <mxPoint x="140" y="670" as="sourcePoint" />
            <mxPoint x="450" y="290" as="targetPoint" />
          </mxGeometry>
        </mxCell>
        <mxCell id="88dExMz7GgdW-D3_D78H-6" value="" style="endArrow=none;dashed=1;html=1;rounded=0;" parent="1" source="88dExMz7GgdW-D3_D78H-14" edge="1">
          <mxGeometry width="50" height="50" relative="1" as="geometry">
            <mxPoint x="419.5" y="510" as="sourcePoint" />
            <mxPoint x="419.5" y="180" as="targetPoint" />
          </mxGeometry>
        </mxCell>
        <mxCell id="88dExMz7GgdW-D3_D78H-7" value="" style="endArrow=none;dashed=1;html=1;rounded=0;" parent="1" source="88dExMz7GgdW-D3_D78H-16" edge="1">
          <mxGeometry width="50" height="50" relative="1" as="geometry">
            <mxPoint x="699.5" y="510" as="sourcePoint" />
            <mxPoint x="699.5" y="180" as="targetPoint" />
          </mxGeometry>
        </mxCell>
        <mxCell id="88dExMz7GgdW-D3_D78H-8" value="SENDING CREDENTIALS" style="endArrow=classic;html=1;rounded=0;dashed=1;" parent="1" edge="1">
          <mxGeometry y="20" width="50" height="50" relative="1" as="geometry">
            <mxPoint x="140" y="210" as="sourcePoint" />
            <mxPoint x="420" y="210" as="targetPoint" />
            <mxPoint as="offset" />
          </mxGeometry>
        </mxCell>
        <mxCell id="88dExMz7GgdW-D3_D78H-9" value="SUCCESS - SENDING CONFIRM EMAIL" style="endArrow=classic;html=1;rounded=0;dashed=1;" parent="1" edge="1">
          <mxGeometry y="-20" width="50" height="50" relative="1" as="geometry">
            <mxPoint x="420" y="470" as="sourcePoint" />
            <mxPoint x="140" y="470" as="targetPoint" />
            <mxPoint as="offset" />
          </mxGeometry>
        </mxCell>
        <mxCell id="88dExMz7GgdW-D3_D78H-10" value="CONFIRMING EMAL" style="endArrow=classic;html=1;rounded=0;dashed=1;" parent="1" edge="1">
          <mxGeometry x="-0.1429" y="30" width="50" height="50" relative="1" as="geometry">
            <mxPoint x="140" y="560" as="sourcePoint" />
            <mxPoint x="420" y="560" as="targetPoint" />
            <mxPoint as="offset" />
          </mxGeometry>
        </mxCell>
        <mxCell id="88dExMz7GgdW-D3_D78H-11" value="SENDING CONFIRMED CREDENTIALS" style="endArrow=classic;html=1;rounded=0;dashed=1;" parent="1" edge="1">
          <mxGeometry y="20" width="50" height="50" relative="1" as="geometry">
            <mxPoint x="420" y="660" as="sourcePoint" />
            <mxPoint x="700" y="660" as="targetPoint" />
            <mxPoint as="offset" />
          </mxGeometry>
        </mxCell>
        <mxCell id="88dExMz7GgdW-D3_D78H-12" value="CHECKING CREDENTIALS" style="endArrow=classic;html=1;rounded=0;dashed=1;" parent="1" edge="1">
          <mxGeometry y="20" width="50" height="50" relative="1" as="geometry">
            <mxPoint x="420" y="290" as="sourcePoint" />
            <mxPoint x="700" y="290" as="targetPoint" />
            <mxPoint as="offset" />
          </mxGeometry>
        </mxCell>
        <mxCell id="88dExMz7GgdW-D3_D78H-15" value="" style="endArrow=none;dashed=1;html=1;rounded=0;" parent="1" target="88dExMz7GgdW-D3_D78H-14" edge="1" source="e1NVN__aVMvT4MRfMoeR-2">
          <mxGeometry width="50" height="50" relative="1" as="geometry">
            <mxPoint x="420" y="670" as="sourcePoint" />
            <mxPoint x="419.5" y="180" as="targetPoint" />
          </mxGeometry>
        </mxCell>
        <mxCell id="88dExMz7GgdW-D3_D78H-14" value="" style="rounded=0;whiteSpace=wrap;html=1;" parent="1" vertex="1">
          <mxGeometry x="410" y="220" width="20" height="60" as="geometry" />
        </mxCell>
        <mxCell id="88dExMz7GgdW-D3_D78H-17" value="" style="endArrow=none;dashed=1;html=1;rounded=0;" parent="1" target="88dExMz7GgdW-D3_D78H-16" edge="1">
          <mxGeometry width="50" height="50" relative="1" as="geometry">
            <mxPoint x="700" y="670" as="sourcePoint" />
            <mxPoint x="699.5" y="180" as="targetPoint" />
          </mxGeometry>
        </mxCell>
        <mxCell id="88dExMz7GgdW-D3_D78H-16" value="" style="rounded=0;whiteSpace=wrap;html=1;" parent="1" vertex="1">
          <mxGeometry x="690" y="310" width="20" height="60" as="geometry" />
        </mxCell>
        <mxCell id="88dExMz7GgdW-D3_D78H-18" value="SENDING CONTROL CREDENTIALS" style="endArrow=classic;html=1;rounded=0;dashed=1;" parent="1" edge="1">
          <mxGeometry y="-20" width="50" height="50" relative="1" as="geometry">
            <mxPoint x="700" y="380" as="sourcePoint" />
            <mxPoint x="420" y="380" as="targetPoint" />
            <mxPoint as="offset" />
          </mxGeometry>
        </mxCell>
        <mxCell id="88dExMz7GgdW-D3_D78H-19" value="FAILED" style="endArrow=classic;html=1;rounded=0;dashed=1;" parent="1" edge="1">
          <mxGeometry x="0.4271" y="17" width="50" height="50" relative="1" as="geometry">
            <mxPoint x="420" y="470" as="sourcePoint" />
            <mxPoint x="140" y="660" as="targetPoint" />
            <mxPoint y="1" as="offset" />
          </mxGeometry>
        </mxCell>
        <mxCell id="e1NVN__aVMvT4MRfMoeR-3" value="" style="endArrow=none;dashed=1;html=1;rounded=0;" edge="1" parent="1">
          <mxGeometry width="50" height="50" relative="1" as="geometry">
            <mxPoint x="419.5" y="570" as="sourcePoint" />
            <mxPoint x="419.83333333333326" y="510" as="targetPoint" />
          </mxGeometry>
        </mxCell>
        <mxCell id="e1NVN__aVMvT4MRfMoeR-5" value="" style="endArrow=none;dashed=1;html=1;rounded=0;" edge="1" parent="1" source="e1NVN__aVMvT4MRfMoeR-10" target="e1NVN__aVMvT4MRfMoeR-2">
          <mxGeometry width="50" height="50" relative="1" as="geometry">
            <mxPoint x="420" y="670" as="sourcePoint" />
            <mxPoint x="420" y="280" as="targetPoint" />
          </mxGeometry>
        </mxCell>
        <mxCell id="e1NVN__aVMvT4MRfMoeR-2" value="" style="rounded=0;whiteSpace=wrap;html=1;" vertex="1" parent="1">
          <mxGeometry x="410" y="390" width="20" height="60" as="geometry" />
        </mxCell>
        <mxCell id="e1NVN__aVMvT4MRfMoeR-7" value="" style="rounded=0;whiteSpace=wrap;html=1;" vertex="1" parent="1">
          <mxGeometry x="130" y="490" width="20" height="60" as="geometry" />
        </mxCell>
        <mxCell id="e1NVN__aVMvT4MRfMoeR-11" value="" style="endArrow=none;dashed=1;html=1;rounded=0;" edge="1" parent="1" target="e1NVN__aVMvT4MRfMoeR-10">
          <mxGeometry width="50" height="50" relative="1" as="geometry">
            <mxPoint x="420" y="670" as="sourcePoint" />
            <mxPoint x="420" y="450" as="targetPoint" />
          </mxGeometry>
        </mxCell>
        <mxCell id="e1NVN__aVMvT4MRfMoeR-10" value="" style="rounded=0;whiteSpace=wrap;html=1;" vertex="1" parent="1">
          <mxGeometry x="410" y="590" width="20" height="60" as="geometry" />
        </mxCell>
      </root>
    </mxGraphModel>
  </diagram>
</mxfile>
